<svg width="24" height="18" viewBox="0 0 24 18" fill="none" xmlns="http://www.w3.org/2000/svg">
  <!-- US Flag -->
  <rect width="24" height="18" rx="2" fill="#B22234"/>
  <rect width="24" height="1.38" fill="#FFFFFF" y="1.38"/>
  <rect width="24" height="1.38" fill="#FFFFFF" y="4.15"/>
  <rect width="24" height="1.38" fill="#FFFFFF" y="6.92"/>
  <rect width="24" height="1.38" fill="#FFFFFF" y="9.69"/>
  <rect width="24" height="1.38" fill="#FFFFFF" y="12.46"/>
  <rect width="24" height="1.38" fill="#FFFFFF" y="15.23"/>
  <rect width="9.6" height="9.69" fill="#3C3B6E"/>
  <!-- Stars simplified as white dots for better visibility at small size -->
  <circle cx="1.6" cy="1.6" r="0.4" fill="white"/>
  <circle cx="3.2" cy="1.6" r="0.4" fill="white"/>
  <circle cx="4.8" cy="1.6" r="0.4" fill="white"/>
  <circle cx="6.4" cy="1.6" r="0.4" fill="white"/>
  <circle cx="8" cy="1.6" r="0.4" fill="white"/>
  <circle cx="2.4" cy="2.8" r="0.4" fill="white"/>
  <circle cx="4" cy="2.8" r="0.4" fill="white"/>
  <circle cx="5.6" cy="2.8" r="0.4" fill="white"/>
  <circle cx="7.2" cy="2.8" r="0.4" fill="white"/>
  <circle cx="1.6" cy="4" r="0.4" fill="white"/>
  <circle cx="3.2" cy="4" r="0.4" fill="white"/>
  <circle cx="4.8" cy="4" r="0.4" fill="white"/>
  <circle cx="6.4" cy="4" r="0.4" fill="white"/>
  <circle cx="8" cy="4" r="0.4" fill="white"/>
  <circle cx="2.4" cy="5.2" r="0.4" fill="white"/>
  <circle cx="4" cy="5.2" r="0.4" fill="white"/>
  <circle cx="5.6" cy="5.2" r="0.4" fill="white"/>
  <circle cx="7.2" cy="5.2" r="0.4" fill="white"/>
  <circle cx="1.6" cy="6.4" r="0.4" fill="white"/>
  <circle cx="3.2" cy="6.4" r="0.4" fill="white"/>
  <circle cx="4.8" cy="6.4" r="0.4" fill="white"/>
  <circle cx="6.4" cy="6.4" r="0.4" fill="white"/>
  <circle cx="8" cy="6.4" r="0.4" fill="white"/>
  <circle cx="2.4" cy="7.6" r="0.4" fill="white"/>
  <circle cx="4" cy="7.6" r="0.4" fill="white"/>
  <circle cx="5.6" cy="7.6" r="0.4" fill="white"/>
  <circle cx="7.2" cy="7.6" r="0.4" fill="white"/>
  <circle cx="1.6" cy="8.8" r="0.4" fill="white"/>
  <circle cx="3.2" cy="8.8" r="0.4" fill="white"/>
  <circle cx="4.8" cy="8.8" r="0.4" fill="white"/>
  <circle cx="6.4" cy="8.8" r="0.4" fill="white"/>
  <circle cx="8" cy="8.8" r="0.4" fill="white"/>
</svg>