<svg width="300" height="200" xmlns="http://www.w3.org/2000/svg">
  <defs>
    <radialGradient id="virusGrad" cx="50%" cy="50%" r="50%">
      <stop offset="0%" style="stop-color:#e74c3c;stop-opacity:1" />
      <stop offset="100%" style="stop-color:#c0392b;stop-opacity:1" />
    </radialGradient>
    <linearGradient id="protectionGrad" x1="0%" y1="0%" x2="100%" y2="100%">
      <stop offset="0%" style="stop-color:#2ecc71;stop-opacity:1" />
      <stop offset="100%" style="stop-color:#27ae60;stop-opacity:1" />
    </linearGradient>
  </defs>
  
  <!-- Background -->
  <rect width="300" height="200" fill="#0f1419"/>
  
  <!-- Virus (crossed out) -->
  <circle cx="100" cy="80" r="15" fill="url(#virusGrad)" opacity="0.7"/>
  <circle cx="95" cy="75" r="3" fill="#fff"/>
  <circle cx="105" cy="75" r="3" fill="#fff"/>
  <path d="M90 90 Q100 95 110 90" stroke="#fff" stroke-width="2" fill="none"/>
  
  <!-- Cross out the virus -->
  <line x1="85" y1="65" x2="115" y2="95" stroke="#ff0000" stroke-width="4"/>
  <line x1="115" y1="65" x2="85" y2="95" stroke="#ff0000" stroke-width="4"/>
  
  <!-- Protection shield -->
  <path d="M200 50 L220 60 L220 100 Q220 120 200 130 Q180 120 180 100 L180 60 Z" fill="url(#protectionGrad)" stroke="#fff" stroke-width="2">
    <animate attributeName="opacity" values="1;0.8;1" dur="2s" repeatCount="indefinite"/>
  </path>
  
  <!-- Checkmark in shield -->
  <path d="M190 90 L195 95 L210 80" stroke="#fff" stroke-width="3" fill="none"/>
  
  <!-- Scanning effect -->
  <rect x="40" y="140" width="220" height="2" fill="#00d4ff" opacity="0.8">
    <animate attributeName="width" values="0;220;0" dur="3s" repeatCount="indefinite"/>
  </rect>
  
  <!-- Security dots -->
  <circle cx="50" cy="120" r="2" fill="#00d4ff">
    <animate attributeName="r" values="2;4;2" dur="2s" repeatCount="indefinite"/>
  </circle>
  <circle cx="150" cy="160" r="2" fill="#43d8ff">
    <animate attributeName="r" values="2;3;2" dur="1.5s" repeatCount="indefinite"/>
  </circle>
  <circle cx="250" cy="130" r="2" fill="#00d4ff">
    <animate attributeName="r" values="2;4;2" dur="2.2s" repeatCount="indefinite"/>
  </circle>
</svg> 