<?xml version="1.0" encoding="UTF-8"?>
<svg width="300" height="200" viewBox="0 0 300 200" xmlns="http://www.w3.org/2000/svg">
  <defs>
    <linearGradient id="rackGrad" x1="0%" y1="0%" x2="100%" y2="100%">
      <stop offset="0%" style="stop-color:#00d4ff;stop-opacity:0.9"/>
      <stop offset="100%" style="stop-color:#0099cc;stop-opacity:0.7"/>
    </linearGradient>
    <linearGradient id="dataGrad" x1="0%" y1="0%" x2="100%" y2="100%">
      <stop offset="0%" style="stop-color:#43d8ff;stop-opacity:0.8"/>
      <stop offset="100%" style="stop-color:#00a8cc;stop-opacity:0.6"/>
    </linearGradient>
    <filter id="glow">
      <feGaussianBlur stdDeviation="2" result="coloredBlur"/>
      <feMerge> 
        <feMergeNode in="coloredBlur"/>
        <feMergeNode in="SourceGraphic"/>
      </feMerge>
    </filter>
  </defs>
  
  <!-- Background -->
  <rect width="300" height="200" fill="#0f1419"/>
  
  <!-- Data center floor -->
  <rect x="20" y="40" width="260" height="140" fill="#1a2332" stroke="#43d8ff" stroke-width="1" rx="4"/>
  
  <!-- Server racks row 1 -->
  <rect x="40" y="60" width="25" height="80" fill="url(#rackGrad)" stroke="#43d8ff" stroke-width="2" rx="3"/>
  <rect x="80" y="60" width="25" height="80" fill="url(#rackGrad)" stroke="#43d8ff" stroke-width="2" rx="3"/>
  <rect x="120" y="60" width="25" height="80" fill="url(#rackGrad)" stroke="#43d8ff" stroke-width="2" rx="3"/>
  <rect x="160" y="60" width="25" height="80" fill="url(#rackGrad)" stroke="#43d8ff" stroke-width="2" rx="3"/>
  <rect x="200" y="60" width="25" height="80" fill="url(#rackGrad)" stroke="#43d8ff" stroke-width="2" rx="3"/>
  <rect x="240" y="60" width="25" height="80" fill="url(#rackGrad)" stroke="#43d8ff" stroke-width="2" rx="3"/>
  
  <!-- Server units in racks -->
  <rect x="42" y="65" width="21" height="8" fill="#00ff88" opacity="0.8" rx="1"/>
  <rect x="42" y="75" width="21" height="8" fill="#00d4ff" opacity="0.8" rx="1"/>
  <rect x="42" y="85" width="21" height="8" fill="#00ff88" opacity="0.8" rx="1"/>
  <rect x="42" y="95" width="21" height="8" fill="#00d4ff" opacity="0.8" rx="1"/>
  <rect x="42" y="105" width="21" height="8" fill="#ffd700" opacity="0.8" rx="1"/>
  <rect x="42" y="115" width="21" height="8" fill="#00d4ff" opacity="0.8" rx="1"/>
  <rect x="42" y="125" width="21" height="8" fill="#00ff88" opacity="0.8" rx="1"/>
  
  <rect x="82" y="65" width="21" height="8" fill="#00d4ff" opacity="0.8" rx="1"/>
  <rect x="82" y="75" width="21" height="8" fill="#00ff88" opacity="0.8" rx="1"/>
  <rect x="82" y="85" width="21" height="8" fill="#00d4ff" opacity="0.8" rx="1"/>
  <rect x="82" y="95" width="21" height="8" fill="#ffd700" opacity="0.8" rx="1"/>
  <rect x="82" y="105" width="21" height="8" fill="#00d4ff" opacity="0.8" rx="1"/>
  <rect x="82" y="115" width="21" height="8" fill="#00ff88" opacity="0.8" rx="1"/>
  <rect x="82" y="125" width="21" height="8" fill="#00d4ff" opacity="0.8" rx="1"/>
  
  <rect x="122" y="65" width="21" height="8" fill="#00ff88" opacity="0.8" rx="1"/>
  <rect x="122" y="75" width="21" height="8" fill="#00d4ff" opacity="0.8" rx="1"/>
  <rect x="122" y="85" width="21" height="8" fill="#00ff88" opacity="0.8" rx="1"/>
  <rect x="122" y="95" width="21" height="8" fill="#00d4ff" opacity="0.8" rx="1"/>
  <rect x="122" y="105" width="21" height="8" fill="#00d4ff" opacity="0.8" rx="1"/>
  <rect x="122" y="115" width="21" height="8" fill="#ffd700" opacity="0.8" rx="1"/>
  <rect x="122" y="125" width="21" height="8" fill="#00ff88" opacity="0.8" rx="1"/>
  
  <rect x="162" y="65" width="21" height="8" fill="#00d4ff" opacity="0.8" rx="1"/>
  <rect x="162" y="75" width="21" height="8" fill="#00ff88" opacity="0.8" rx="1"/>
  <rect x="162" y="85" width="21" height="8" fill="#00d4ff" opacity="0.8" rx="1"/>
  <rect x="162" y="95" width="21" height="8" fill="#00d4ff" opacity="0.8" rx="1"/>
  <rect x="162" y="105" width="21" height="8" fill="#ffd700" opacity="0.8" rx="1"/>
  <rect x="162" y="115" width="21" height="8" fill="#00d4ff" opacity="0.8" rx="1"/>
  <rect x="162" y="125" width="21" height="8" fill="#00ff88" opacity="0.8" rx="1"/>
  
  <rect x="202" y="65" width="21" height="8" fill="#00ff88" opacity="0.8" rx="1"/>
  <rect x="202" y="75" width="21" height="8" fill="#00d4ff" opacity="0.8" rx="1"/>
  <rect x="202" y="85" width="21" height="8" fill="#00ff88" opacity="0.8" rx="1"/>
  <rect x="202" y="95" width="21" height="8" fill="#00d4ff" opacity="0.8" rx="1"/>
  <rect x="202" y="105" width="21" height="8" fill="#00d4ff" opacity="0.8" rx="1"/>
  <rect x="202" y="115" width="21" height="8" fill="#00ff88" opacity="0.8" rx="1"/>
  <rect x="202" y="125" width="21" height="8" fill="#ffd700" opacity="0.8" rx="1"/>
  
  <rect x="242" y="65" width="21" height="8" fill="#00d4ff" opacity="0.8" rx="1"/>
  <rect x="242" y="75" width="21" height="8" fill="#00ff88" opacity="0.8" rx="1"/>
  <rect x="242" y="85" width="21" height="8" fill="#00d4ff" opacity="0.8" rx="1"/>
  <rect x="242" y="95" width="21" height="8" fill="#00d4ff" opacity="0.8" rx="1"/>
  <rect x="242" y="105" width="21" height="8" fill="#00ff88" opacity="0.8" rx="1"/>
  <rect x="242" y="115" width="21" height="8" fill="#00d4ff" opacity="0.8" rx="1"/>
  <rect x="242" y="125" width="21" height="8" fill="#ffd700" opacity="0.8" rx="1"/>
  
  <!-- Central network switch -->
  <rect x="125" y="150" width="50" height="20" fill="url(#dataGrad)" stroke="#43d8ff" stroke-width="2" rx="3"/>
  <circle cx="130" cy="160" r="1.5" fill="#00ff88"/>
  <circle cx="135" cy="160" r="1.5" fill="#00ff88"/>
  <circle cx="140" cy="160" r="1.5" fill="#00ff88"/>
  <circle cx="145" cy="160" r="1.5" fill="#ffd700"/>
  <circle cx="150" cy="160" r="1.5" fill="#00ff88"/>
  <circle cx="155" cy="160" r="1.5" fill="#00ff88"/>
  <circle cx="160" cy="160" r="1.5" fill="#00ff88"/>
  <circle cx="165" cy="160" r="1.5" fill="#00ff88"/>
  <circle cx="170" cy="160" r="1.5" fill="#00ff88"/>
  
  <!-- Network connections -->
  <line x1="52" y1="140" x2="150" y2="150" stroke="#43d8ff" stroke-width="2" filter="url(#glow)"/>
  <line x1="92" y1="140" x2="150" y2="150" stroke="#43d8ff" stroke-width="2" filter="url(#glow)"/>
  <line x1="132" y1="140" x2="150" y2="150" stroke="#43d8ff" stroke-width="2" filter="url(#glow)"/>
  <line x1="172" y1="140" x2="150" y2="150" stroke="#43d8ff" stroke-width="2" filter="url(#glow)"/>
  <line x1="212" y1="140" x2="150" y2="150" stroke="#43d8ff" stroke-width="2" filter="url(#glow)"/>
  <line x1="252" y1="140" x2="150" y2="150" stroke="#43d8ff" stroke-width="2" filter="url(#glow)"/>
  
  <!-- Data flow indicators -->
  <circle cx="60" cy="145" r="1.5" fill="#43d8ff">
    <animate attributeName="opacity" values="0.3;1;0.3" dur="1.5s" repeatCount="indefinite"/>
  </circle>
  <circle cx="100" cy="145" r="1.5" fill="#43d8ff">
    <animate attributeName="opacity" values="0.3;1;0.3" dur="2s" repeatCount="indefinite"/>
  </circle>
  <circle cx="140" cy="145" r="1.5" fill="#43d8ff">
    <animate attributeName="opacity" values="0.3;1;0.3" dur="1.8s" repeatCount="indefinite"/>
  </circle>
  <circle cx="180" cy="145" r="1.5" fill="#43d8ff">
    <animate attributeName="opacity" values="0.3;1;0.3" dur="2.2s" repeatCount="indefinite"/>
  </circle>
  <circle cx="220" cy="145" r="1.5" fill="#43d8ff">
    <animate attributeName="opacity" values="0.3;1;0.3" dur="1.7s" repeatCount="indefinite"/>
  </circle>
  
  <!-- Temperature indicators -->
  <text x="30" y="30" fill="#43d8ff" font-family="Arial, sans-serif" font-size="10">TEMP: 18°C</text>
  <text x="120" y="30" fill="#43d8ff" font-family="Arial, sans-serif" font-size="10">HUMIDITY: 45%</text>
  <text x="220" y="30" fill="#43d8ff" font-family="Arial, sans-serif" font-size="10">UPS: ACTIVE</text>
  
  <!-- Status lights -->
  <circle cx="20" cy="25" r="2" fill="#00ff88">
    <animate attributeName="opacity" values="0.5;1;0.5" dur="1s" repeatCount="indefinite"/>
  </circle>
  <circle cx="110" cy="25" r="2" fill="#00ff88">
    <animate attributeName="opacity" values="0.5;1;0.5" dur="1.2s" repeatCount="indefinite"/>
  </circle>
  <circle cx="210" cy="25" r="2" fill="#00ff88">
    <animate attributeName="opacity" values="0.5;1;0.5" dur="0.8s" repeatCount="indefinite"/>
  </circle>
  
  <!-- Power consumption indicator -->
  <text x="20" y="190" fill="#ffd700" font-family="Arial, sans-serif" font-size="9" font-weight="bold">POWER: 87.3 kW</text>
  <rect x="120" y="185" width="60" height="6" fill="#1a2332" stroke="#43d8ff" stroke-width="1" rx="3"/>
  <rect x="121" y="186" width="52" height="4" fill="#00ff88" rx="2"/>
</svg> 