<svg width="400" height="300" viewBox="0 0 400 300" xmlns="http://www.w3.org/2000/svg">
  <defs>
    <linearGradient id="bg2" x1="0%" y1="0%" x2="100%" y2="100%">
      <stop offset="0%" style="stop-color:#1a1a1a;stop-opacity:1" />
      <stop offset="100%" style="stop-color:#2a2a2a;stop-opacity:1" />
    </linearGradient>
    <filter id="glow2">
      <feGaussianBlur stdDeviation="3" result="coloredBlur"/>
      <feMerge> 
        <feMergeNode in="coloredBlur"/>
        <feMergeNode in="SourceGraphic"/>
      </feMerge>
    </filter>
  </defs>
  
  <rect width="400" height="300" fill="url(#bg2)"/>
  
  <!-- Central shield -->
  <g filter="url(#glow2)">
    <path d="M200 80 L170 100 L170 180 L200 220 L230 180 L230 100 Z" fill="#333" stroke="#00ff00" stroke-width="3"/>
    <text x="200" y="155" font-family="Arial" font-size="24" fill="#00ff00" text-anchor="middle">🔒</text>
  </g>
  
  <!-- Threat indicators -->
  <circle cx="80" cy="120" r="15" fill="#ff4444" opacity="0.8"/>
  <text x="80" y="125" font-family="Arial" font-size="12" fill="#fff" text-anchor="middle">⚠</text>
  
  <circle cx="320" cy="140" r="15" fill="#ff4444" opacity="0.8"/>
  <text x="320" y="145" font-family="Arial" font-size="12" fill="#fff" text-anchor="middle">⚠</text>
  
  <circle cx="120" cy="200" r="15" fill="#ff4444" opacity="0.8"/>
  <text x="120" y="205" font-family="Arial" font-size="12" fill="#fff" text-anchor="middle">⚠</text>
  
  <!-- Protection lines -->
  <line x1="95" y1="120" x2="170" y2="140" stroke="#00ff00" stroke-width="2" stroke-dasharray="5,5"/>
  <line x1="305" y1="140" x2="230" y2="150" stroke="#00ff00" stroke-width="2" stroke-dasharray="5,5"/>
  <line x1="135" y1="200" x2="170" y2="180" stroke="#00ff00" stroke-width="2" stroke-dasharray="5,5"/>
  
  <!-- Firewall representation -->
  <rect x="60" y="240" width="80" height="30" fill="#444" stroke="#00ff00" stroke-width="2"/>
  <text x="100" y="258" font-family="Arial" font-size="10" fill="#00ff00" text-anchor="middle">FIREWALL</text>
  
  <rect x="260" y="240" width="80" height="30" fill="#444" stroke="#00ff00" stroke-width="2"/>
  <text x="300" y="258" font-family="Arial" font-size="10" fill="#00ff00" text-anchor="middle">IDS/IPS</text>
  
  <!-- Title -->
  <text x="200" y="30" font-family="Arial, sans-serif" font-size="16" font-weight="bold" fill="#00ff00" text-anchor="middle">Cybersecurity Implementation</text>
  <text x="200" y="50" font-family="Arial, sans-serif" font-size="12" fill="#ccc" text-anchor="middle">Multi-layer security architecture</text>
</svg> 